# xmcd
#
# Track frame offsets:
# 150
# 16561
# 31352
# 43115
# 51147
# 65016
# 85154
# 94820
# 105478
# 132224
# 146389
# 157697
# 170082
# 186224
# 200874
# 212604
# 220649
# 234358
# 254473
# 264061
# 274831
# 301566
# 315734
# 326979
#
# Disc length: 4520 seconds
#
#
# Revision: 6
# Processed by: cddbd v1.5PL3 Copyright (c) Steve Scherf et al.
# Submitted via: FreeRIP 2.53 
#
DISCID=4911a618
DTITLE=John Mayall and the Bluesbreakers with Eric Clapton - John Mayall and the Bluesbreakers with Eric Clapton
DYEAR=1966
DGENRE=60er/70er
TTITLE0=All Your Love
TTITLE1=Hideaway
TTITLE2=Little Girl
TTITLE3=Another Man
TTITLE4=Double Crossing Time
TTITLE5=What'd I Say
TTITLE6=Key To Love
TTITLE7=Parchman Farm
TTITLE8=Have You Heard
TTITLE9=Ramblin' On My Mind
TTITLE10=Steppin' Out
TTITLE11=It Ain't Right
TTITLE12=All Your Love (Stereo)
TTITLE13=Hideaway (Stereo)
TTITLE14=Little Girl (Stereo)
TTITLE15=Another Man (Stereo)
TTITLE16=Double Crossing Time (Stereo)
TTITLE17=What'd I Say (Stereo)
TTITLE18=Key To Love (Stereo)
TTITLE19=Parchman Farm (Stereo)
TTITLE20=Have You Heard (Stereo)
TTITLE21=Ramblin' On My Mind (Stereo)
TTITLE22=Steppin' Out (Stereo)
TTITLE23=It Ain't Right (Stereo)
EXTD=
EXTT0=
EXTT1=
EXTT2=
EXTT3=
EXTT4=
EXTT5=
EXTT6=
EXTT7=
EXTT8=
EXTT9=
EXTT10=
EXTT11=
EXTT12=
EXTT13=
EXTT14=
EXTT15=
EXTT16=
EXTT17=
EXTT18=
EXTT19=
EXTT20=
EXTT21=
EXTT22=
EXTT23=
PLAYORDER=
